<svg xmlns="http://www.w3.org/2000/svg" width="600" height="400" viewBox="0 0 600 400"><rect width="100%" height="100%" fill="#DDDDDD"/><path fill="#999999" d="m188.78 152.805-27.93 46.96v29.68h-14.21v-29.68l-27.93-46.96h12.56q1.86 0 2.94.9 1.09.9 1.83 2.28l14 25.6q1.21 2.28 2.14 4.29.93 2.02 1.67 4.03.69-2.01 1.59-4.03.9-2.01 2.07-4.29l13.94-25.6q.58-1.16 1.75-2.17 1.16-1.01 2.96-1.01h12.62Zm39.54 22.26h13.09v54.38h-8.01q-2.59 0-3.28-2.38l-.9-4.35q-3.34 3.39-7.37 5.48-4.03 2.1-9.49 2.1-4.45 0-7.87-1.51t-5.75-4.27q-2.33-2.75-3.52-6.54t-1.19-8.35v-34.56h13.09v34.56q0 4.98 2.3 7.71 2.31 2.73 6.92 2.73 3.39 0 6.36-1.51t5.62-4.16v-39.33Zm39.11 54.38h-13.09v-54.38h8q2.55 0 3.34 2.39l.85 4.03q1.43-1.59 2.99-2.92 1.57-1.32 3.34-2.28 1.78-.95 3.82-1.51t4.48-.56q5.14 0 8.45 2.79 3.31 2.78 4.96 7.39 1.27-2.7 3.18-4.64 1.9-1.93 4.18-3.15t4.85-1.8q2.57-.59 5.17-.59 4.51 0 8 1.38 3.5 1.38 5.89 4.03 2.38 2.65 3.63 6.47 1.24 3.81 1.24 8.74v34.61h-13.09v-34.61q0-5.19-2.28-7.82-2.28-2.62-6.68-2.62-2.01 0-3.73.69-1.72.69-3.02 1.99t-2.04 3.26q-.75 1.96-.75 4.5v34.61h-13.14v-34.61q0-5.46-2.2-7.95t-6.44-2.49q-2.86 0-5.33 1.4-2.46 1.41-4.58 3.85v39.8Zm88.78 0h-13.1v-54.38h8.01q2.54 0 3.34 2.39l.84 4.03q1.44-1.59 3-2.92 1.56-1.32 3.34-2.28 1.77-.95 3.81-1.51t4.48-.56q5.14 0 8.46 2.79 3.31 2.78 4.95 7.39 1.27-2.7 3.18-4.64 1.91-1.93 4.19-3.15 2.28-1.22 4.85-1.8 2.57-.59 5.17-.59 4.5 0 8 1.38t5.88 4.03q2.39 2.65 3.63 6.47 1.25 3.81 1.25 8.74v34.61H406.4v-34.61q0-5.19-2.28-7.82-2.28-2.62-6.68-2.62-2.01 0-3.74.69-1.72.69-3.02 1.99t-2.04 3.26q-.74 1.96-.74 4.5v34.61h-13.14v-34.61q0-5.46-2.2-7.95t-6.44-2.49q-2.87 0-5.33 1.4-2.46 1.41-4.58 3.85v39.8Zm114.58-54.38h10.5l-29.63 69.33q-.58 1.37-1.51 2.09-.93.71-2.84.71h-9.75l10.18-21.83-22-50.3h11.5q1.54 0 2.41.74.88.75 1.3 1.7l11.56 28.2q.58 1.43.98 2.86.39 1.43.77 2.91.47-1.48.95-2.94t1.06-2.89l10.92-28.14q.42-1.06 1.4-1.75t2.2-.69Z"/></svg>