<svg id="eD9esz2X0HG1" xmlns="http://www.w3.org/2000/svg" xmlns:xlink="http://www.w3.org/1999/xlink" viewBox="0 0 300 300" shape-rendering="geometricPrecision" text-rendering="geometricPrecision" width="300" height="300"><path d="M63.435637,216.255133l15.01909-32.896889l24.162954-35.358245l11.969626-24.469527v-42.446965l60.988524,10.691938l54.214284,53.459693-64.151631,38.123105-58.920667,15.336588-38.564656,23.27069-4.717524-5.710388Z" transform="translate(0-.128577)" fill="#f0e49b" stroke="#f0e49b" stroke-width="0.6"/><g transform="matrix(1 0 0 1.149542-6.226745-50.376592)"><path d="M65.803561,245.807611c47.331307-41.193624,79.380261-25.429413,121.901129-49.856591c16.844979-9.67702,43.91469-23.65217,59.45974-34.75578" transform="matrix(.954609 0 0 0.895186 6.84571 21.157034)" fill="none" stroke="#000" stroke-width="10" stroke-linecap="round" stroke-linejoin="round"/><path d="M68.6787,233.33108c0-32.74933,30.18101-49.54148,43.28218-75.74381c8.69204-17.38408,7.86949-39.13398,7.86949-58.03746" transform="translate(.983682 7.869487)" fill="none" stroke="#000" stroke-width="5" stroke-linecap="round" stroke-linejoin="round"/><path d="M120.814052,107.419297c68.37344,0,74.430038,45.576993,121.977048,55.086403" fill="none" stroke="#000102" stroke-width="20" stroke-linecap="round" stroke-linejoin="round"/></g><g><path d="M131.11448,175.58847c-4.78573.95715-22.41544,9.65283-24.76668,1.81536-8.02906-26.76353,55.48517-14.24266,34.543-5.86579-3.23859,1.29544-6.45574,2.7222-9.77632,4.05043" transform="translate(.000001 0)" fill="#970f0f" stroke="#000" stroke-width="2" stroke-linecap="round" stroke-linejoin="round"/><path d="M191.07591,151.9854c-14.47541,5.79016-25.48822,13.77336-36.49826-1.95526-1.67526-2.39322-5.91376-5.62597-5.21404-9.12457c2.74743-13.73718,62.31866,6.95856,41.7123,11.07983" fill="#970f0f" stroke="#000" stroke-width="2" stroke-linecap="round" stroke-linejoin="round"/><path d="M125.604651,132.43501c0-8.65173-5.239031-21.81426-2.923901-29.53136c2.2028-7.34266,36.13893,4.73583,39.18022,10.81842c6.35304,12.70608-34.36784,23.43416-36.25632,18.71294" fill="#970f0f" stroke="#000" stroke-width="2" stroke-linecap="round" stroke-linejoin="round"/></g><path d="M125.457557,156.714112h.21192c-2.41905,4.62693-2.710264,18.102458,5.579883,17.269718c4.7888-.47888,7.2226-11.02322,11.02322-11.02322c5.78442,0,18.77284,15.32406,23.14876,1.10232c2.51231-8.16501-7.63245-8.47046-6.98137-14.33019.42275-3.80479,19.92404-4.97968,16.90227-11.02322-6.75977-13.51953-14.80412-4.04185-24.25108-4.04185-1.24182,0-4.16608-15.5268-16.90227-8.45114-6.05225,3.36236,1.56669,12.39606-1.8372,15.79995-3.86062,3.86062-10.4906-4.17284-14.69763,1.8372-3.71195,5.30279-.119492,14.445032,7.803498,12.860432" transform="translate(-.064825 0.000001)" fill="#367f24" stroke="#000102" stroke-width="2" stroke-linecap="round" stroke-linejoin="round"/><g><path d="M89.78441,179.72544c1.58407-3.96017-4.59112-3.66885-3.12088-6.24177.63854-1.11744,6.57264-1.10982,2.73077-3.51099-1.50781-.94238-4.98825-.44175-4.68133-3.51099.3029-3.02903,4.75171-2.1235,5.07144-4.68133.44227-3.53817-11.98311-2.2508-2.73077-7.80221" fill="none" stroke="#777"/><path d="M108.89982,156.70893c-14.50177-2.90035.46733-8.19432,0-9.36265-1.11738-2.79346-10.1212-.19507-10.53298-3.9011-.40859-3.67733,7.99633-3.02756,7.02199-7.4121-.50274-2.26234-4.34974-2.11961-5.85166-3.12088-3.43105-2.28736.27972-3.09881,2.34066-3.51099" fill="none" stroke="#777"/><path d="M130.35589,116.52756c8.0489-10.73187-5.89418-2.59578-7.02199-9.36265-.89883-5.393,9.67245-6.33349,8.97254-10.53298-.25488-1.52925-14.87391-2.93501-7.4121-7.4121" fill="none" stroke="#777"/><path d="M145.96031,146.95617c0-2.69888-4.50143-5.11592-4.29121-5.85166.45538-1.59383,8.10912-2.11695,6.63188-5.07144-.53432-1.06864-10.30492-.60315-9.36265-3.9011.54564-1.90975,7.142-2.19057,8.19232-4.29121c2.08558-4.17116-15.95741-4.85221-2.73077-10.14287" fill="none" stroke="#777"/><path d="M186.53179,159.04959c.78022-1.30037,2.52876-2.39634,2.34066-3.9011-.26247-2.09976-4.64134-.9053-5.46155-2.34066-1.51368-2.64894,8.42795-3.02663.39011-6.24177-.70464-.28186-3.37417-1.61961-2.73077-3.12088.63104-1.47243,9.22457-3.06994,7.4121-6.24177-1.09968-1.92444-14.56462-6.63188-1.56044-6.63188" fill="none" stroke="#777"/></g></svg>
